<?xml version="1.0" encoding="UTF-8"?>
<!-- Created with Inkscape (http://www.inkscape.org/) -->
<svg width="130mm" height="130mm" version="1.1" viewBox="0 0 130 130" xmlns="http://www.w3.org/2000/svg">
 <g transform="translate(-39.996 -100.13)">
  <g transform="translate(5.8584 2.0744)" fill-rule="evenodd" stroke-linecap="round">
   <path d="m94.769 100.13c-16.335 0.0419-30.395 11.237-34.701 26.955-11.586 2.6447-20.056 13.038-20.072 25.246v6e-3c1.64e-4 14.297 11.513 26.022 25.686 26.022h37.326c0-2.6577 0.54896-5.1933 1.5374-7.5003h-38.863c-10.056 2.2e-4 -18.183-8.2144-18.185-18.517v-4e-3c0.01401-9.4119 6.8764-17.234 15.996-18.36l2.6836-0.33176 0.5333-2.6484c2.7436-13.62 14.454-23.327 28.068-23.368v5.2e-4h0.01188c13.855 9e-3 25.721 10.023 28.242 23.938l0.73846 4.0757 3.9822-1.1405c1.579-0.45169 3.2106-0.68313 4.8498-0.68937 10.053 4e-3 18.178 8.2212 18.178 18.523-9e-5 7.901-4.7866 14.559-11.549 17.242 1.1377 2.1917 1.8639 4.6257 2.0764 7.2011 9.8846-3.6372 16.972-13.236 16.973-24.443 3.1e-4 -14.297-11.512-26.024-25.685-26.023h-0.012c-1.0554 4e-3 -2.0763 0.30879-3.1207 0.44339-4.414-15.544-18.405-26.623-34.682-26.627h-0.0062z" color="#000000" style="-inkscape-stroke:none;paint-order:markers stroke fill"/>
   <path d="m122.19 143.44c-1.8226-6.1e-4 -3.3006 1.4764-3.3011 3.299v12.726c-8.9919 1.577-15.885 9.466-15.885 18.891 0 9.4254 6.8929 17.314 15.885 18.891v23.13c-6e-4 1.8234 1.4777 3.3017 3.3011 3.3011 1.8224-8.3e-4 3.2991-1.4787 3.2985-3.3011v-23.129c8.9926-1.5761 15.885-9.4658 15.885-18.892 0-9.4261-6.8922-17.316-15.885-18.892v-12.725c-5.4e-4 -1.8216-1.4769-3.2982-3.2985-3.299zm-1.5906 15.804c-0.0413 3e-3 -0.0828 6e-3 -0.12402 9e-3 0.0412-4e-3 0.0828-6e-3 0.12402-9e-3zm3.1822 0c0.0401 3e-3 0.0804 6e-3 0.12041 9e-3 -0.04-4e-3 -0.0803-6e-3 -0.12041-9e-3zm-1.5916 7.4285c6.4975 0 11.684 5.186 11.684 11.684 0 6.4975-5.186 11.684-11.684 11.684-6.4975 0-11.686-5.186-11.686-11.684 0-6.4975 5.1881-11.684 11.686-11.684zm-1.7058 30.787c0.0328 3e-3 0.0659 5e-3 0.0987 8e-3 -0.0328-3e-3 -0.0659-5e-3 -0.0987-8e-3zm3.4086 0c-0.0316 3e-3 -0.0635 4e-3 -0.0951 7e-3 0.0316-3e-3 0.0635-4e-3 0.0951-7e-3z" color="#000000" fill="#1a1a1a" stroke="#fff" stroke-width="4.6" style="paint-order:markers stroke fill"/>
   <path d="m71.377 143.44c-1.8226-6e-4 -3.3006 1.4764-3.3011 3.299v33.362c0.0024-4.2e-4 0.0049-6.1e-4 0.0072-1e-3 -8.9954 1.5741-15.892 9.4651-15.892 18.893 0 9.4253 6.8925 17.315 15.884 18.893v2.4913c-6.02e-4 1.8234 1.4777 3.3017 3.3011 3.3011 1.8224-8.2e-4 3.2991-1.4787 3.2985-3.3011v-2.4908c8.9927-1.5764 15.885-9.4672 15.885-18.893 0-9.4291-6.8968-17.321-15.894-18.893 0.0027 4.8e-4 0.0055 5.6e-4 0.0083 1e-3v-33.362c-5.35e-4 -1.8216-1.4769-3.2982-3.2985-3.299zm-1.5906 36.441c-0.04126 3e-3 -0.08283 6e-3 -0.12402 9e-3 0.04118-4e-3 0.08277-6e-3 0.12402-9e-3zm3.1833 0c0.03955 3e-3 0.07937 6e-3 0.11886 9e-3 -0.03948-4e-3 -0.0793-6e-3 -0.11886-9e-3zm-1.5927 7.428c6.4975 0 11.684 5.1865 11.684 11.684 0 6.4975-5.186 11.685-11.684 11.685-6.4975 0-11.686-5.1876-11.686-11.685 0-6.4975 5.1881-11.684 11.686-11.684zm-1.7058 30.789c0.03279 3e-3 0.06586 5e-3 0.0987 8e-3 -0.03284-3e-3 -0.06591-5e-3 -0.0987-8e-3zm3.4081 0c-0.03091 3e-3 -0.06207 5e-3 -0.09302 7e-3 0.03094-3e-3 0.06211-4e-3 0.09302-7e-3z" color="#000000" fill="#1a1a1a" stroke="#fff" stroke-width="4.6" style="paint-order:markers stroke fill"/>
  </g>
 </g>
</svg>
