<?xml version="1.0" encoding="UTF-8" standalone="no"?>
<!-- Created with Inkscape (http://www.inkscape.org/) -->

<svg
   width="130mm"
   height="130mm"
   viewBox="0 0 130 130"
   version="1.1"
   id="svg1"
   inkscape:version="1.3.2 (091e20ef0f, 2023-11-25)"
   sodipodi:docname="pc_filter_icon.svg"
   inkscape:export-filename="pc_filter_icon.png"
   inkscape:export-xdpi="25.00923"
   inkscape:export-ydpi="25.00923"
   xmlns:inkscape="http://www.inkscape.org/namespaces/inkscape"
   xmlns:sodipodi="http://sodipodi.sourceforge.net/DTD/sodipodi-0.dtd"
   xmlns="http://www.w3.org/2000/svg"
   xmlns:svg="http://www.w3.org/2000/svg">
  <sodipodi:namedview
     id="namedview1"
     pagecolor="#ffffff"
     bordercolor="#000000"
     borderopacity="0.25"
     inkscape:showpageshadow="2"
     inkscape:pageopacity="0.0"
     inkscape:pagecheckerboard="0"
     inkscape:deskcolor="#d1d1d1"
     inkscape:document-units="mm"
     inkscape:zoom="1.7428493"
     inkscape:cx="223.48462"
     inkscape:cy="237.82895"
     inkscape:window-width="1920"
     inkscape:window-height="1011"
     inkscape:window-x="0"
     inkscape:window-y="32"
     inkscape:window-maximized="1"
     inkscape:current-layer="layer1" />
  <defs
     id="defs1" />
  <g
     inkscape:label="Lager 1"
     inkscape:groupmode="layer"
     id="layer1"
     transform="translate(-39.996008,-100.12877)">
    <path
       style="color:#000000;fill:#1a1a1a;fill-rule:evenodd;stroke-linecap:round;-inkscape-stroke:none;paint-order:markers stroke fill"
       d="m 128.05197,145.51579 c -1.82259,-6.1e-4 -3.30056,1.47644 -3.3011,3.29903 v 12.72584 c -8.99189,1.57699 -15.88481,9.466 -15.88481,18.89135 0,9.42537 6.8929,17.31438 15.88481,18.89135 v 23.12986 c -6e-4,1.82339 1.4777,3.3017 3.3011,3.30109 1.82237,-8.3e-4 3.2991,-1.47872 3.2985,-3.30109 v -23.12934 c 8.99261,-1.57612 15.88482,-9.46577 15.88482,-18.89187 0,-9.42609 -6.89223,-17.31573 -15.88482,-18.89187 v -12.72532 c -5.4e-4,-1.82158 -1.47693,-3.2982 -3.2985,-3.29903 z M 126.46136,161.32 c -0.0413,0.003 -0.0828,0.006 -0.12402,0.009 0.0412,-0.004 0.0828,-0.006 0.12402,-0.009 z m 3.18224,0 c 0.0401,0.003 0.0804,0.006 0.12041,0.009 -0.04,-0.004 -0.0803,-0.006 -0.12041,-0.009 z m -1.59163,7.42848 c 6.49751,0 11.68352,5.18603 11.68352,11.68353 0,6.49751 -5.18601,11.68352 -11.68352,11.68352 -6.49752,0 -11.6856,-5.18601 -11.6856,-11.68352 0,-6.4975 5.18808,-11.68353 11.6856,-11.68353 z m -1.70584,30.78676 c 0.0328,0.003 0.0659,0.005 0.0987,0.008 -0.0328,-0.003 -0.0659,-0.005 -0.0987,-0.008 z m 3.40857,0 c -0.0316,0.003 -0.0635,0.004 -0.0951,0.007 0.0316,-0.003 0.0635,-0.004 0.0951,-0.007 z"
       id="path15" />
    <path
       style="color:#000000;fill:#1a1a1a;fill-rule:evenodd;stroke-linecap:round;-inkscape-stroke:none;paint-order:markers stroke fill"
       d="m 77.235433,145.51579 c -1.822586,-6e-4 -3.300555,1.47644 -3.301091,3.29903 v 33.3623 c 0.0024,-4.2e-4 0.0049,-6.1e-4 0.0072,-0.001 -8.995359,1.57409 -15.891537,9.46507 -15.891537,18.8929 0,9.42528 6.892509,17.31549 15.884302,18.89291 v 2.49132 c -6.02e-4,1.82338 1.4777,3.30169 3.301091,3.30109 1.82238,-8.2e-4 3.299108,-1.47872 3.298506,-3.30109 v -2.49081 c 8.992731,-1.57635 15.885336,-9.46723 15.885336,-18.89342 0,-9.42908 -6.896817,-17.3208 -15.893604,-18.89342 0.0027,4.8e-4 0.0055,5.6e-4 0.0083,0.001 v -33.36178 c -5.35e-4,-1.82158 -1.476931,-3.29821 -3.298506,-3.29903 z m -1.590601,36.44119 c -0.04126,0.003 -0.08283,0.006 -0.124023,0.009 0.04118,-0.004 0.08277,-0.006 0.124023,-0.009 z m 3.183268,0 c 0.03955,0.003 0.07937,0.006 0.118856,0.009 -0.03948,-0.004 -0.0793,-0.006 -0.118856,-0.009 z m -1.592667,7.42797 c 6.497509,0 11.683524,5.18653 11.683524,11.68404 0,6.49752 -5.186015,11.68508 -11.683524,11.68508 -6.49751,0 -11.685592,-5.18756 -11.685592,-11.68508 0,-6.49751 5.188082,-11.68404 11.685592,-11.68404 z m -1.705839,30.78882 c 0.03279,0.003 0.06586,0.005 0.0987,0.008 -0.03284,-0.003 -0.06591,-0.005 -0.0987,-0.008 z m 3.40806,0 c -0.03091,0.003 -0.06207,0.005 -0.09302,0.007 0.03094,-0.003 0.06211,-0.004 0.09302,-0.007 z"
       id="path12" />
    <g
       id="g15">
      <path
         id="path13"
         style="color:#000000;fill:#1a1a1a;fill-rule:evenodd;stroke:#ffffff;stroke-width:4.6;stroke-linecap:round;stroke-dasharray:none;paint-order:markers stroke fill"
         d="m 128.05197,145.51579 c -1.82259,-6.1e-4 -3.30056,1.47644 -3.3011,3.29903 v 12.72584 c -8.99189,1.57699 -15.88481,9.466 -15.88481,18.89135 0,9.42537 6.8929,17.31438 15.88481,18.89135 v 23.12986 c -6e-4,1.82339 1.4777,3.3017 3.3011,3.30109 1.82237,-8.3e-4 3.2991,-1.47872 3.2985,-3.30109 v -23.12934 c 8.99261,-1.57612 15.88482,-9.46577 15.88482,-18.89187 0,-9.42609 -6.89223,-17.31573 -15.88482,-18.89187 v -12.72532 c -5.4e-4,-1.82158 -1.47693,-3.2982 -3.2985,-3.29903 z M 126.46136,161.32 c -0.0413,0.003 -0.0828,0.006 -0.12402,0.009 0.0412,-0.004 0.0828,-0.006 0.12402,-0.009 z m 3.18224,0 c 0.0401,0.003 0.0804,0.006 0.12041,0.009 -0.04,-0.004 -0.0803,-0.006 -0.12041,-0.009 z m -1.59163,7.42848 c 6.49751,0 11.68352,5.18603 11.68352,11.68353 0,6.49751 -5.18601,11.68352 -11.68352,11.68352 -6.49752,0 -11.6856,-5.18601 -11.6856,-11.68352 0,-6.4975 5.18808,-11.68353 11.6856,-11.68353 z m -1.70584,30.78676 c 0.0328,0.003 0.0659,0.005 0.0987,0.008 -0.0328,-0.003 -0.0659,-0.005 -0.0987,-0.008 z m 3.40857,0 c -0.0316,0.003 -0.0635,0.004 -0.0951,0.007 0.0316,-0.003 0.0635,-0.004 0.0951,-0.007 z" />
      <path
         id="circle2"
         style="color:#000000;fill:#000000;fill-rule:evenodd;stroke-linecap:round;-inkscape-stroke:none;paint-order:markers stroke fill"
         d="M 100.62797 102.20306 C 84.292896 102.24496 70.23276 113.43998 65.926725 129.15852 C 54.34109 131.8032 45.870234 142.19672 45.854565 154.40453 L 45.854565 154.40659 L 45.854565 154.41073 C 45.854729 168.70741 57.367918 180.43271 71.540336 180.4324 L 71.607515 180.4324 C 71.616803 180.42984 71.625611 180.42615 71.634904 180.42361 L 71.634904 172.93208 L 71.540336 172.93208 C 61.484774 172.9323 53.357095 164.71769 53.354883 154.41486 L 53.354883 154.4128 L 53.354883 154.41073 C 53.368891 144.99885 60.23132 137.17708 69.350805 136.05113 L 72.034362 135.71936 L 72.567663 133.07095 C 75.311306 119.45072 87.021501 109.7439 100.63572 109.70338 L 100.63572 109.7039 L 100.6476 109.7039 C 114.50219 109.7129 126.36881 119.7268 128.88981 133.64145 L 129.62826 137.71717 L 133.61045 136.57667 C 135.18943 136.12498 136.82104 135.89355 138.46028 135.88731 C 148.51372 135.89131 156.63821 144.1085 156.63798 154.41073 C 156.6379 161.48501 152.79494 167.55324 147.13779 170.67382 C 148.29057 172.88946 149.05948 175.32791 149.36763 177.90955 C 158.08236 173.73353 164.13766 164.764 164.13778 154.41073 C 164.13809 140.11369 152.6253 128.3872 138.45253 128.38751 L 138.44633 128.38751 L 138.44013 128.38751 C 137.38477 128.39151 136.36387 128.69629 135.31939 128.83089 C 130.90534 113.28657 116.91394 102.20818 100.63778 102.2041 L 100.6321 102.2041 L 100.62797 102.20306 z M 76.234623 172.93208 L 76.234623 180.4324 L 78.234501 180.4324 L 78.234501 172.93208 L 76.234623 172.93208 z M 82.83422 172.93208 L 82.83422 180.42361 C 82.843513 180.42615 82.85232 180.42984 82.861609 180.4324 L 106.56662 180.4324 L 106.56662 180.43188 C 106.56662 177.79012 107.06548 175.26723 107.95207 172.93208 L 82.83422 172.93208 z M 80.890669 179.90478 L 80.273653 180.4324 L 80.829691 180.4324 L 80.921675 179.91046 C 80.788701 179.88746 80.727522 179.87918 80.890669 179.90478 z M 80.921675 179.91046 C 80.923775 179.91046 80.925776 179.91217 80.927876 179.91253 L 80.927876 179.91046 C 80.893368 179.90446 80.945895 179.91446 80.921675 179.91046 z M 73.560368 179.93217 L 73.646667 180.4324 L 74.15568 180.4324 L 73.560368 179.93217 z " />
      <path
         id="path8"
         style="color:#000000;fill:#1a1a1a;fill-rule:evenodd;stroke:#ffffff;stroke-width:4.6;stroke-linecap:round;stroke-dasharray:none;paint-order:markers stroke fill"
         d="m 77.235433,145.51579 c -1.822586,-6e-4 -3.300555,1.47644 -3.301091,3.29903 v 33.3623 c 0.0024,-4.2e-4 0.0049,-6.1e-4 0.0072,-0.001 -8.995359,1.57409 -15.891537,9.46507 -15.891537,18.8929 0,9.42528 6.892509,17.31549 15.884302,18.89291 v 2.49132 c -6.02e-4,1.82338 1.4777,3.30169 3.301091,3.30109 1.82238,-8.2e-4 3.299108,-1.47872 3.298506,-3.30109 v -2.49081 c 8.992731,-1.57635 15.885336,-9.46723 15.885336,-18.89342 0,-9.42908 -6.896817,-17.3208 -15.893604,-18.89342 0.0027,4.8e-4 0.0055,5.6e-4 0.0083,0.001 v -33.36178 c -5.35e-4,-1.82158 -1.476931,-3.29821 -3.298506,-3.29903 z m -1.590601,36.44119 c -0.04126,0.003 -0.08283,0.006 -0.124023,0.009 0.04118,-0.004 0.08277,-0.006 0.124023,-0.009 z m 3.183268,0 c 0.03955,0.003 0.07937,0.006 0.118856,0.009 -0.03948,-0.004 -0.0793,-0.006 -0.118856,-0.009 z m -1.592667,7.42797 c 6.497509,0 11.683524,5.18653 11.683524,11.68404 0,6.49752 -5.186015,11.68508 -11.683524,11.68508 -6.49751,0 -11.685592,-5.18756 -11.685592,-11.68508 0,-6.49751 5.188082,-11.68404 11.685592,-11.68404 z m -1.705839,30.78882 c 0.03279,0.003 0.06586,0.005 0.0987,0.008 -0.03284,-0.003 -0.06591,-0.005 -0.0987,-0.008 z m 3.40806,0 c -0.03091,0.003 -0.06207,0.005 -0.09302,0.007 0.03094,-0.003 0.06211,-0.004 0.09302,-0.007 z" />
    </g>
  </g>
</svg>
